<?xml version="1.0" encoding="utf-8"?>
<!-- Generator: Adobe Illustrator 25.3.0, SVG Export Plug-In . SVG Version: 6.00 Build 0)  -->
<svg version="1.1" id="Layer_1" xmlns="http://www.w3.org/2000/svg" xmlns:xlink="http://www.w3.org/1999/xlink" x="0px" y="0px"
	 viewBox="0 0 612 792" style="enable-background:new 0 0 612 792;" xml:space="preserve">
<style type="text/css">
	.st0{fill:#2BB673;stroke:#2BB673;stroke-width:0.5;stroke-miterlimit:10;}
	.st1{fill:none;stroke:#010101;stroke-miterlimit:10;}
	.st2{stroke:#010101;stroke-width:5;stroke-miterlimit:10;}
	.st3{stroke:#010101;stroke-miterlimit:10;}
	.st4{fill:#010101;stroke:#010101;stroke-miterlimit:10;}
</style>
<g>
	<path class="st0" d="M529.8,548.44H86.96V196.57c0-12.67,10.14-22.95,22.65-22.95h397c12.8,0,23.19,10.53,23.19,23.49V548.44z"/>
	<path d="M178.6,367.06v168.7c0,4.44-0.32,8.78-0.93,12.97c-1.4,9.59-4.32,18.4-8.4,25.96c-2.65,4.92-5.81,9.3-9.34,12.99
		c-5.43,5.67-11.77,9.73-18.67,11.67c-3.01,0.85-6.14,1.3-9.33,1.3c-3.2,0-6.32-0.45-9.33-1.3c-6.9-1.95-13.24-6-18.67-11.67
		c-3.54-3.69-6.69-8.07-9.34-12.99c-4.08-7.55-7-16.37-8.4-25.96h19.33c2.81,11.07,9.12,19.84,17.08,23.74
		c2.92,1.43,6.06,2.21,9.33,2.21c3.27,0,6.41-0.78,9.33-2.21c7.96-3.91,14.27-12.68,17.07-23.74c1.03-4.06,1.6-8.42,1.6-12.97v-51.9
		c0,0,0.01,0,0.01-0.01c-0.01,0-0.01,0-0.01-0.01V367.06H178.6z"/>
	<rect x="295.24" y="158.6" transform="matrix(6.123234e-17 -1 1 6.123234e-17 -71.8245 688.3989)" width="26.1" height="443.03"/>
	<rect x="306.07" y="307.72" class="st1" width="14.06" height="12.25"/>
	<rect x="327.78" y="307.72" class="st1" width="14.06" height="12.25"/>
	<rect x="284.34" y="307.72" class="st1" width="14.06" height="12.25"/>
	<rect x="306.07" y="325.31" class="st1" width="14.06" height="12.62"/>
	<rect x="327.78" y="325.31" class="st1" width="14.06" height="12.62"/>
	<rect x="284.34" y="325.31" class="st1" width="14.06" height="12.62"/>
	<path class="st2" d="M232.11,390.92c-27.84,64.28-27.84,64.28-27.84,64.28"/>
	<path class="st2" d="M399.74,390.55c30.61,63,30.61,63,30.61,63"/>
	<path class="st3" d="M383.28,401.88"/>
	<polyline class="st4" points="179.98,390.24 313.8,203.21 314.96,227.58 235.36,390.24 	"/>
	<polyline class="st4" points="316.25,227.03 395.48,389.89 436.32,387.6 315.58,210.75 235.61,389.89 235.61,389.89 	"/>
	
		<rect x="450.74" y="367.06" transform="matrix(-1 -1.224647e-16 1.224647e-16 -1 920.3381 967.7035)" width="18.86" height="233.58"/>
	<line class="st1" x1="285.05" y1="307.29" x2="285.05" y2="319.97"/>
	<line class="st1" x1="306.68" y1="307.17" x2="306.68" y2="319.85"/>
	<line class="st1" x1="328.02" y1="307.17" x2="328.02" y2="319.85"/>
	<line class="st1" x1="285.33" y1="325.29" x2="285.33" y2="337.97"/>
	<line class="st1" x1="306.68" y1="325.29" x2="306.68" y2="337.97"/>
	<line class="st1" x1="328.02" y1="325.29" x2="328.02" y2="337.97"/>
</g>
</svg>
